<?xml version="1.0" encoding="UTF-8" standalone="no"?>
<!-- Created with Inkscape (http://www.inkscape.org/) -->

<svg
   width="320mm"
   height="320mm"
   viewBox="0 0 320 320"
   version="1.1"
   id="svg5"
   xml:space="preserve"
   sodipodi:docname="新建文档 1.2023_03_14_22_32_52.0.svg"
   inkscape:export-filename="Desktop/logo.png"
   inkscape:export-xdpi="96"
   inkscape:export-ydpi="96"
   inkscape:version="1.2.2 (b0a84865, 2022-12-01)"
   xmlns:inkscape="http://www.inkscape.org/namespaces/inkscape"
   xmlns:sodipodi="http://sodipodi.sourceforge.net/DTD/sodipodi-0.dtd"
   xmlns="http://www.w3.org/2000/svg"
   xmlns:svg="http://www.w3.org/2000/svg"><sodipodi:namedview
     id="namedview7"
     pagecolor="#ffffff"
     bordercolor="#000000"
     borderopacity="0.25"
     inkscape:showpageshadow="2"
     inkscape:pageopacity="0.0"
     inkscape:pagecheckerboard="true"
     inkscape:deskcolor="#d1d1d1"
     inkscape:document-units="mm"
     showgrid="false"
     inkscape:lockguides="false"
     inkscape:zoom="0.51516627"
     inkscape:cx="530.89655"
     inkscape:cy="509.54422"
     inkscape:window-width="1512"
     inkscape:window-height="945"
     inkscape:window-x="0"
     inkscape:window-y="37"
     inkscape:window-maximized="0"
     inkscape:current-layer="layer1" /><defs
     id="defs2"><inkscape:perspective
       sodipodi:type="inkscape:persp3d"
       inkscape:vp_x="-0.28077218 : 159.92492 : 1"
       inkscape:vp_y="0 : 1000 : 0"
       inkscape:vp_z="318.70396 : 141.71888 : 1"
       inkscape:persp3d-origin="160 : 106.66667 : 1"
       id="perspective8695" /></defs><g
     inkscape:label="图层 1"
     inkscape:groupmode="layer"
     id="layer1"><circle
       style="display:inline;opacity:1;fill:#000000;fill-opacity:1;stroke:none;stroke-width:32;stroke-dasharray:none;stroke-opacity:1"
       id="path1998"
       cx="160"
       cy="160"
       r="160" /><rect
       style="opacity:1;fill:#d46545;fill-opacity:1;stroke:none;stroke-width:6.61509"
       id="rect338"
       width="122.24"
       height="32"
       x="98.879997"
       y="64"
       ry="0" /><rect
       style="opacity:1;fill:#3070ff;fill-opacity:1;stroke:none;stroke-width:5.69212"
       id="rect1106"
       width="32"
       height="122.24"
       x="144"
       y="96" /><path
       style="opacity:1;fill:none;fill-opacity:1;stroke:#d2ad3a;stroke-width:32;stroke-dasharray:none;stroke-opacity:1"
       id="path1164"
       sodipodi:type="arc"
       sodipodi:cx="128"
       sodipodi:cy="218.24001"
       sodipodi:rx="32"
       sodipodi:ry="32"
       sodipodi:start="0"
       sodipodi:end="3.1415927"
       sodipodi:arc-type="arc"
       d="m 160,218.24001 a 32,32 0 0 1 -16,27.71281 32,32 0 0 1 -32,0 32,32 0 0 1 -16,-27.71281"
       sodipodi:open="true" /><path
       d="m 205.7277,230.34586 10.90798,5.61208 c 1.04601,0.54002 1.70601,1.64002 1.70601,2.84005 v 9.74415 c 0,0.70001 -0.55201,1.27002 -1.23401,1.27002 a 1.2059984,1.2060188 0 0 1 -0.55199,-0.134 l -10.90799,-5.61209 a 3.1859956,3.1860494 0 0 1 -1.70599,-2.84004 v -9.74615 c 0,-0.70001 0.55199,-1.27003 1.23399,-1.27003 0.192,0 0.37999,0.0459 0.552,0.13401 z m 28.97995,-0.13401 c 0.68001,0 1.234,0.56802 1.234,1.27002 v 9.74216 c 0,1.20401 -0.65999,2.30404 -1.70599,2.84004 l -10.90798,5.61409 a 1.2059984,1.2060188 0 0 1 -0.552,0.134 1.2519983,1.2520194 0 0 1 -1.23401,-1.27002 v -9.74215 c 0,-1.20402 0.66,-2.30403 1.706,-2.84005 l 10.90798,-5.61408 a 1.2059984,1.2060188 0 0 1 0.552,-0.13401 z m -13.37997,-12.06818 12.92798,6.5441 a 1.2619982,1.2620196 0 0 1 0,2.24804 l -12.92798,6.54409 c -0.87201,0.44201 -1.9,0.44201 -2.772,0 l -12.92798,-6.54409 a 1.2619982,1.2620196 0 0 1 0,-2.24804 l 12.92798,-6.5441 c 0.872,-0.44203 1.89999,-0.44203 2.772,0 z"
       fill="#999999"
       p-id="10001"
       data-spm-anchor-id="a313x.7781069.0.i1"
       class="selected"
       id="path8820"
       style="fill:#ffffff;fill-opacity:1;stroke-width:0.0312502;image-rendering:auto" /></g></svg>
